<?xml version="1.0" encoding="utf-8"?>
<!-- Generator: Adobe Illustrator 25.2.3, SVG Export Plug-In . SVG Version: 6.00 Build 0)  -->
<svg version="1.1" id="Layer_1" xmlns="http://www.w3.org/2000/svg" xmlns:xlink="http://www.w3.org/1999/xlink" x="0px" y="0px"
	 viewBox="0 0 20 20" style="enable-background:new 0 0 20 20;" xml:space="preserve">
<style type="text/css">
	.st0{fill:#666666;}
</style>
<path class="st0" d="M11.7,10l7.7-7.7c0.5-0.5,0.5-1.3,0-1.8c-0.5-0.5-1.3-0.5-1.8,0L9.9,8.2L2.3,0.5C1.8,0,1,0,0.5,0.5
	S0,1.8,0.5,2.3L8.1,10l-7.7,7.7C0,18.2,0,19,0.5,19.5c0.3,0.2,0.7,0.3,1,0.3c0.3,0,0.7-0.2,1-0.3l7.7-7.7l7.7,7.7
	c0.2,0.2,0.7,0.3,1,0.3c0.3,0,0.7-0.2,1-0.3c0.5-0.5,0.5-1.3,0-1.8L11.7,10z"/>
</svg>
