<?xml version="1.0" encoding="utf-8"?>
<!-- Generator: Adobe Illustrator 25.2.3, SVG Export Plug-In . SVG Version: 6.00 Build 0)  -->
<svg version="1.1" id="Layer_1" xmlns="http://www.w3.org/2000/svg" xmlns:xlink="http://www.w3.org/1999/xlink" x="0px" y="0px"
	 viewBox="0 0 20 20" style="enable-background:new 0 0 20 20;" xml:space="preserve">
<style type="text/css">
	.st0{fill:#666666;}
</style>
<path class="st0" d="M4.5,19.6c-0.2,0-0.4-0.1-0.6-0.2c-0.3-0.2-0.5-0.7-0.4-1.1l1.3-5.7L0.4,8.8C0,8.5-0.1,8.1,0.1,7.7
	C0.2,7.3,0.5,7,1,6.9l5.8-0.5L9,1.1c0.2-0.4,0.6-0.6,1-0.6s0.8,0.2,1,0.6l2.3,5.3L19,6.9c0.4,0,0.8,0.3,0.9,0.7
	c0.1,0.4,0,0.9-0.3,1.1l-4.4,3.8l1.3,5.7c0.1,0.4-0.1,0.9-0.4,1.1c-0.4,0.2-0.8,0.3-1.2,0l-5-3l-5,3C4.8,19.5,4.7,19.6,4.5,19.6z
	 M10,15.2c0.2,0,0.4,0.1,0.6,0.1l4.7,2.8L14,12.8c-0.1-0.4,0-0.8,0.3-1l4.1-3.6l-5.4-0.5c-0.4,0-0.8-0.3-0.9-0.6L10,2L7.8,7
	C7.7,7.4,7.4,7.6,7,7.6L1.5,8.1l4.1,3.6c0.3,0.3,0.4,0.7,0.3,1l-1.2,5.4l4.7-2.8C9.6,15.2,9.8,15.2,10,15.2z M6.7,6.5L6.7,6.5
	L6.7,6.5z M13.3,6.5L13.3,6.5L13.3,6.5z"/>
</svg>
