<?xml version="1.0" encoding="utf-8"?>
<!-- Generator: Adobe Illustrator 25.2.3, SVG Export Plug-In . SVG Version: 6.00 Build 0)  -->
<svg version="1.1" id="Capa_1" xmlns="http://www.w3.org/2000/svg" xmlns:xlink="http://www.w3.org/1999/xlink" x="0px" y="0px"
	 viewBox="0 0 512 512" style="enable-background:new 0 0 512 512;" xml:space="preserve">
<style type="text/css">
	.st0{fill:#666666;}
</style>
<g>
	<g>
		<path class="st0" d="M287.5,224.5c-3.4-3.4-8-5.1-12.7-4.6l-124.4,11.3c-6.2,0.6-11.5,4.7-13.6,10.5c-2.1,5.9-0.7,12.4,3.7,16.8
			l34,34L4.7,462c-6.2,6.2-6.2,16.4,0,22.6l22.6,22.6c6.2,6.3,16.4,6.3,22.6,0l169.7-169.7l34,34c4.4,4.4,10.9,5.8,16.8,3.7
			c2.2-0.8,4.2-2.1,5.9-3.7c2.6-2.6,4.3-6,4.6-9.9l11.3-124.4C292.6,232.5,290.9,227.8,287.5,224.5z"/>
	</g>
</g>
<g>
	<g>
		<path class="st0" d="M480,0H32C14.3,0,0,14.3,0,32v320h64V64h384v384H160v64h320c17.7,0,32-14.3,32-32V32C512,14.3,497.7,0,480,0z
			"/>
	</g>
</g>
</svg>
