<?xml version="1.0" encoding="utf-8"?>
<!-- Generator: Adobe Illustrator 25.2.3, SVG Export Plug-In . SVG Version: 6.00 Build 0)  -->
<svg version="1.1" id="Layer" xmlns="http://www.w3.org/2000/svg" xmlns:xlink="http://www.w3.org/1999/xlink" x="0px" y="0px"
	 viewBox="0 0 512 512" style="enable-background:new 0 0 512 512;" xml:space="preserve">
<style type="text/css">
	.st0{fill:#666666;}
</style>
<path class="st0" d="M54,408h34v60c0,24.3,19.7,44,44,44h248c24.3,0,44-19.7,44-44v-60h34c29.8,0,54-24.2,54-54V166
	c0-29.8-24.2-54-54-54h-34V44c0-24.3-19.7-44-44-44H132c-24.3,0-44,19.7-44,44v68H54c-29.8,0-54,24.2-54,54v188
	C0,383.8,24.2,408,54,408z M376,464H136V304h240V464z M136,48h240v64H136V48z M48,166c0-3.3,2.7-6,6-6h404c3.3,0,6,2.7,6,6v188
	c0,3.3-2.7,6-6,6h-34v-80c0-13.3-10.7-24-24-24H112c-13.3,0-24,10.7-24,24v80H54c-3.3,0-6-2.7-6-6V166z"/>
<path class="st0" d="M96,232c13.3,0,24-10.7,24-24s-10.7-24-24-24h0c-13.3,0-24,10.7-24,24S82.8,232,96,232z"/>
</svg>
