<?xml version="1.0" encoding="utf-8"?>
<!-- Generator: Adobe Illustrator 25.2.3, SVG Export Plug-In . SVG Version: 6.00 Build 0)  -->
<svg version="1.1" id="bold" xmlns="http://www.w3.org/2000/svg" xmlns:xlink="http://www.w3.org/1999/xlink" x="0px" y="0px"
	 viewBox="0 0 512 512" style="enable-background:new 0 0 512 512;" xml:space="preserve">
<style type="text/css">
	.st0{fill:#555555;}
</style>
<path class="st0" d="M400,202h-16v-64c0-70.6-57.4-128-128-128S128,67.4,128,138v64h-16c-26.5,0-48,21.5-48,48v204
	c0,26.5,21.5,48,48,48h288c26.5,0,48-21.5,48-48V250C448,223.5,426.5,202,400,202z M170.7,138c0-47.1,38.3-85.3,85.3-85.3
	s85.3,38.3,85.3,85.3v64H170.7V138z M277.3,366.7v48.6c0,11.8-9.5,21.3-21.3,21.3c-11.8,0-21.3-9.6-21.3-21.3v-48.6
	c-12.7-7.4-21.3-21-21.3-36.7c0-23.5,19.1-42.7,42.7-42.7s42.7,19.1,42.7,42.7C298.7,345.7,290,359.3,277.3,366.7z"/>
</svg>
