<?xml version="1.0" encoding="utf-8"?>
<!-- Generator: Adobe Illustrator 25.2.3, SVG Export Plug-In . SVG Version: 6.00 Build 0)  -->
<svg version="1.1" id="Layer_1" xmlns="http://www.w3.org/2000/svg" xmlns:xlink="http://www.w3.org/1999/xlink" x="0px" y="0px"
	 viewBox="0 0 20 20" style="enable-background:new 0 0 20 20;" xml:space="preserve">
<style type="text/css">
	.st0{fill:#FFFFFF;}
</style>
<path class="st0" d="M3.9,4.4c0-0.4,0.4-0.8,0.8-0.8h10.6c0.4,0,0.8,0.3,0.8,0.8s-0.4,0.8-0.8,0.8H4.7C4.3,5.2,3.9,4.8,3.9,4.4z
	 M16.1,7.5c0-0.4-0.4-0.8-0.8-0.8H4.7c-0.4,0-0.8,0.3-0.8,0.8s0.4,0.8,0.8,0.8h10.6C15.7,8.3,16.1,8,16.1,7.5z M4.7,9.9
	c-0.4,0-0.8,0.4-0.8,0.8s0.4,0.8,0.8,0.8h3.6c0.4,0,0.8-0.4,0.8-0.8S8.7,9.9,8.3,9.9H4.7z M19.3,16c0.9,0.9,0.9,2.4,0,3.3
	c-0.4,0.5-1,0.7-1.6,0.7s-1.2-0.2-1.7-0.7L11.7,15c-0.1-0.1-0.2-0.2-0.2-0.3l-0.9-3.1c-0.1-0.3,0-0.6,0.2-0.8
	c0.2-0.2,0.5-0.3,0.8-0.2l3.1,0.9c0.1,0,0.2,0.1,0.3,0.2L19.3,16z M13,14.1l2.9,2.9l1.1-1.1L14.1,13l-1.5-0.5L13,14.1z M18.2,17.1
	L18.1,17L17,18.1l0.1,0.1c0.3,0.3,0.8,0.3,1.1,0C18.5,17.9,18.5,17.4,18.2,17.1z M16.9,0H3.1C1.4,0,0,1.4,0,3.1v13.7
	C0,18.6,1.4,20,3.1,20h9.6c0.4,0,0.8-0.4,0.8-0.8s-0.4-0.8-0.8-0.8H3.1c-0.9,0-1.6-0.7-1.6-1.6V3.1c0-0.9,0.7-1.6,1.6-1.6h13.7
	c0.9,0,1.6,0.7,1.6,1.6v9.6c0,0.4,0.4,0.8,0.8,0.8s0.8-0.3,0.8-0.8V3.1C20,1.4,18.6,0,16.9,0z"/>
</svg>
