<?xml version="1.0" encoding="utf-8"?>
<!-- Generator: Adobe Illustrator 25.2.3, SVG Export Plug-In . SVG Version: 6.00 Build 0)  -->
<svg version="1.1" id="Layer_1" xmlns="http://www.w3.org/2000/svg" xmlns:xlink="http://www.w3.org/1999/xlink" x="0px" y="0px"
	 viewBox="0 0 512 512" style="enable-background:new 0 0 512 512;" xml:space="preserve">
<style type="text/css">
	.st0{fill:#FFFFFF;}
</style>
<path class="st0" d="M384,60h-68c0-33.1-26.9-60-60-60s-60,26.9-60,60h-68c-33.1,0-60,26.9-60,60v332c0,33.1,26.9,60,60,60h256
	c33.1,0,60-26.9,60-60V120C444,86.9,417.1,60,384,60z M236,60c0-11,9-20,20-20s20,9,20,20v40h-40V60z M404,452c0,11-9,20-20,20H128
	c-11,0-20-9-20-20V120c0-11,9-20,20-20h68v40h120v-40h68c11,0,20,9,20,20V452z M306.4,275.7c7.9-10.5,12.6-23.6,12.6-37.7
	c0-34.7-28.3-63-63-63s-63,28.3-63,63c0,14.1,4.7,27.2,12.6,37.7c-26.2,16.7-43.6,46-43.6,79.3h40c0-29.8,24.2-54,54-54
	s54,24.2,54,54h40C350,321.7,332.6,292.4,306.4,275.7z M233,238c0-12.7,10.3-23,23-23s23,10.3,23,23s-10.3,23-23,23
	S233,250.7,233,238z M162,392h188v40H162V392z"/>
</svg>
