<?xml version="1.0" encoding="utf-8"?>
<!-- Generator: Adobe Illustrator 25.2.3, SVG Export Plug-In . SVG Version: 6.00 Build 0)  -->
<svg version="1.1" id="Layer_1" xmlns="http://www.w3.org/2000/svg" xmlns:xlink="http://www.w3.org/1999/xlink" x="0px" y="0px"
	 viewBox="0 0 512 512" style="enable-background:new 0 0 512 512;" xml:space="preserve">
<style type="text/css">
	.st0{fill:#555555;}
</style>
<path class="st0" d="M50.5,461.2l96.9-27.9c3.2-0.9,6.2-2.7,8.6-5.1c16.9-16.9,313.3-313.3,325.1-325.1c7.8-7.8,7.8-20.5,0-28.3
	l-69-69c-7.8-7.8-20.5-7.8-28.3,0C372,17.8,75.7,314.1,58.8,331c-2.4,2.4-4.1,5.4-5.1,8.6l-27.9,96.9
	C21.4,451.6,35.4,465.6,50.5,461.2z M398,48.3L438.7,89l-34.1,34.1l-40.7-40.7L398,48.3z M90.7,355.6l244.9-244.9l40.7,40.7
	L131.4,396.3l-57.1,16.5L90.7,355.6z M512,492c0,11-9,20-20,20H20c-11,0-20-9-20-20s9-20,20-20h472C503,472,512,481,512,492z"/>
</svg>
