<?xml version="1.0" encoding="utf-8"?>
<!-- Generator: Adobe Illustrator 25.4.1, SVG Export Plug-In . SVG Version: 6.00 Build 0)  -->
<svg version="1.1" id="Capa_1" xmlns="http://www.w3.org/2000/svg" xmlns:xlink="http://www.w3.org/1999/xlink" x="0px" y="0px"
	 viewBox="0 0 384 384" style="enable-background:new 0 0 384 384;" xml:space="preserve">
<g>
	<g>
		<path d="M368,176c-8.8,0-16,7.2-16,16c0,88.2-71.8,160-160,160S32,280.2,32,192S103.8,32,192,32c43,0,83.3,16.8,113.5,47.3
			c6.2,6.3,16.4,6.3,22.6,0.1c6.3-6.2,6.3-16.4,0.1-22.6C291.9,20.1,243.5,0,192,0C86.1,0,0,86.1,0,192s86.1,192,192,192
			s192-86.1,192-192C384,183.2,376.8,176,368,176z"/>
	</g>
</g>
<g>
	<g>
		<path d="M222,192l48.7-48.7c8.3-8.3,8.3-21.8,0-30c-8.3-8.3-21.8-8.3-30,0L192,162l-48.7-48.7c-8.3-8.3-21.8-8.3-30,0
			c-8.3,8.3-8.3,21.8,0,30L162,192l-48.7,48.7c-8.3,8.3-8.3,21.8,0,30c4.1,4.2,9.6,6.2,15,6.2c5.4,0,10.9-2.1,15-6.2L192,222
			l48.7,48.7c4.2,4.2,9.6,6.2,15,6.2c5.4,0,10.9-2.1,15-6.2c8.3-8.3,8.3-21.8,0-30L222,192z"/>
	</g>
</g>
</svg>
