<?xml version="1.0" encoding="utf-8"?>
<!-- Generator: Adobe Illustrator 25.2.3, SVG Export Plug-In . SVG Version: 6.00 Build 0)  -->
<svg version="1.1" id="Layer_1" xmlns="http://www.w3.org/2000/svg" xmlns:xlink="http://www.w3.org/1999/xlink" x="0px" y="0px"
	 viewBox="0 0 1000 1000" style="enable-background:new 0 0 1000 1000;" xml:space="preserve">
<style type="text/css">
	.st0{fill:#F4F4F4;}
</style>
<path id="bg_body" class="st0" d="M534.1,950.2l-218-218l17.4-17.4l218,218L534.1,950.2z M977.8,506.6L804.1,332.9l-32.8,32.8
	L945,539.4l-17.3,17.3L754,383l-41.9,41.9l173.7,173.7l-11.5,11.5L700.6,436.4L410.2,726.8l-59.1-59.1L301,717.8l-59.1-59.1
	l-50.1,50.1L1.1,518.2l11.5-11.5l179.2,179.2l38.6-38.6L51,467.8l17.3-17.3L247.7,630l32.8-32.8L101.1,417.7l23.1-23.1l179.5,179.5
	l270.6-270.6L395,124.3l11.5-11.5l190.7,190.7L315.1,585.6l41.8,41.8l320.7-320.7L444.9,73.9l17.3-17.3l250,250l-338,338l36,36
	l370.8-370.8L495,23.8l23.1-23.1l482.8,482.8L977.8,506.6z M301,683.3l32.8-32.8L292,608.6l-32.8,32.8L301,683.3z M583.8,900.5
	L425.3,742l23.2-23.2l158.6,158.6L583.8,900.5z M483.6,1000.7L206.1,723.2l11.6-11.6l277.6,277.6L483.6,1000.7z"/>
</svg>
