<?xml version="1.0" encoding="utf-8"?>
<!-- Generator: Adobe Illustrator 25.2.3, SVG Export Plug-In . SVG Version: 6.00 Build 0)  -->
<svg version="1.1" id="Layer_1" xmlns="http://www.w3.org/2000/svg" xmlns:xlink="http://www.w3.org/1999/xlink" x="0px" y="0px"
	 viewBox="0 0 20 20" style="enable-background:new 0 0 20 20;" xml:space="preserve">
<style type="text/css">
	.st0{fill:#666666;}
</style>
<g>
	<path class="st0" d="M17.1,0H2.3C1,0,0,1,0,2.3v15.3C0,19,1,20,2.3,20h15.3c1.3,0,2.3-1,2.3-2.3V2.9L17.1,0z M4.7,1.6h9v4.6h-9V1.6
		z M15.3,18.4H4.7v-6.2h10.6C15.3,12.3,15.3,18.4,15.3,18.4z M18.4,17.7c0,0.4-0.4,0.8-0.8,0.8h-0.8v-7.7H3.1v7.7H2.3
		c-0.4,0-0.8-0.4-0.8-0.8V2.3c0-0.4,0.4-0.8,0.8-0.8h0.8v6.2h12.1V1.6h1.2l2,2L18.4,17.7L18.4,17.7z"/>
	<rect x="9.2" y="2.3" class="st0" width="1.6" height="3.1"/>
</g>
</svg>
