<?xml version="1.0" encoding="utf-8"?>
<!-- Generator: Adobe Illustrator 25.2.3, SVG Export Plug-In . SVG Version: 6.00 Build 0)  -->
<svg version="1.1" id="Layer_1" xmlns="http://www.w3.org/2000/svg" xmlns:xlink="http://www.w3.org/1999/xlink" x="0px" y="0px"
	 viewBox="0 0 512 512" style="enable-background:new 0 0 512 512;" xml:space="preserve">
<style type="text/css">
	.st0{fill:#FFFFFF;}
</style>
<g id="Exit-Out-Arrow-Arrows-Direction-User_Interface">
	<path class="st0" d="M488,40v112c0,13.3-10.7,24-24,24s-24-10.7-24-24v-46.1L250.4,295.5c-9.7,9-24.9,8.5-33.9-1.2
		c-8.6-9.2-8.6-23.5,0-32.7L406.1,72H360c-13.3,0-24-10.7-24-24s10.7-24,24-24h112C480.8,24,488,31.2,488,40L488,40z"/>
	<path class="st0" d="M486.6,280.2c0,0.9-0.1,1.8-0.2,2.7c-14.9,127.3-130.1,218.4-257.4,203.5S10.7,356.3,25.6,229
		C38.1,122.2,122.3,38,229.1,25.5c13.2-1.5,25.2,7.9,26.7,21.2c0.8,6.8-1.3,13.6-5.8,18.7c-3.9,4.4-9.3,7.2-15.1,7.8
		C133.9,84.9,61.6,176.2,73.2,277.1s103,173.3,203.9,161.6C362,428.9,429,362,438.8,277.1c1.4-12.1,11.6-21.2,23.8-21.1
		C475.9,256,486.7,266.8,486.6,280.2C486.6,280.2,486.6,280.2,486.6,280.2L486.6,280.2z"/>
</g>
</svg>
