<?xml version="1.0" encoding="utf-8"?>
<!-- Generator: Adobe Illustrator 25.2.3, SVG Export Plug-In . SVG Version: 6.00 Build 0)  -->
<svg version="1.1" id="Layer_1" xmlns="http://www.w3.org/2000/svg" xmlns:xlink="http://www.w3.org/1999/xlink" x="0px" y="0px"
	 viewBox="0 0 512 512" style="enable-background:new 0 0 512 512;" xml:space="preserve">
<style type="text/css">
	.st0{fill:#AAAAAA;}
	.st1{display:none;}
	.st2{fill:#FF671D;}
</style>
<path class="st0" d="M507.3,236.6l-199-199c-28.9-28.9-75.8-28.9-104.7,0l-199,199c-6.2,6.2-6.2,16.4,0,22.6s16.4,6.2,22.6,0
	L40,246.6V450c0,25.4,20.6,46,46,46h340c25.4,0,46-20.6,46-46V246.6l12.7,12.7c3.1,3.1,7.2,4.7,11.3,4.7l0,0c4.1,0,8.2-1.6,11.3-4.7
	C513.6,253,513.6,242.9,507.3,236.6z M440,450c0,7.7-6.3,14-14,14H86c-7.7,0-14-6.3-14-14V214.6L226.3,60.3
	c16.4-16.4,43-16.4,59.4,0L440,214.6V450z"/>
<path class="st1" d="M320,496H192c-8.8,0-16-7.2-16-16V338c0-27.6,22.4-50,50-50h60c27.6,0,50,22.4,50,50v142
	C336,488.8,328.8,496,320,496z M208,464h96V338c0-9.9-8.1-18-18-18h-60c-9.9,0-18,8.1-18,18V464z"/>
<polygon class="st2" points="366,266.2 296.6,266.2 296.6,196.8 215.4,196.8 215.4,266.2 146,266.2 146,347.4 215.4,347.4 
	215.4,416.8 296.6,416.8 296.6,347.4 366,347.4 "/>
</svg>
