<?xml version="1.0" encoding="utf-8"?>
<!-- Generator: Adobe Illustrator 25.2.3, SVG Export Plug-In . SVG Version: 6.00 Build 0)  -->
<svg version="1.1" id="Layer_1" xmlns="http://www.w3.org/2000/svg" xmlns:xlink="http://www.w3.org/1999/xlink" x="0px" y="0px"
	 viewBox="0 0 20 20" style="enable-background:new 0 0 20 20;" xml:space="preserve">
<style type="text/css">
	.st0{fill:#444444;}
</style>
<g>
	<g>
		<g>
			<path class="st0" d="M19.36,16.35L13.01,10l6.35-6.35c0.85-0.85,0.85-2.19,0-3.01c-0.85-0.85-2.19-0.85-3.01,0L10,6.99L3.65,0.64
				c-0.85-0.85-2.19-0.85-3.01,0c-0.85,0.85-0.85,2.19,0,3.01L6.99,10l-6.35,6.35c-0.85,0.85-0.85,2.19,0,3.01
				c0.85,0.85,2.19,0.85,3.01,0L10,13.01l6.35,6.35c0.85,0.85,2.19,0.85,3.01,0C20.21,18.54,20.21,17.17,19.36,16.35z"/>
		</g>
	</g>
</g>
</svg>
