<?xml version="1.0" encoding="utf-8"?>
<!-- Generator: Adobe Illustrator 25.2.3, SVG Export Plug-In . SVG Version: 6.00 Build 0)  -->
<svg version="1.1" id="Capa_1" xmlns="http://www.w3.org/2000/svg" xmlns:xlink="http://www.w3.org/1999/xlink" x="0px" y="0px"
	 viewBox="0 0 311.1 311.1" style="enable-background:new 0 0 311.1 311.1;" xml:space="preserve">
<style type="text/css">
	.st0{fill:#666666;}
</style>
<g>
	<path class="st0" d="M174,311.1H135c-8.2,0-15.1-5.9-16.5-14l-4.6-28.2c-2.1-0.8-4.1-1.6-6.2-2.5l-22.7,17.3
		c-6.3,4.8-15.8,4.3-21.6-1.2l-28.3-26.8c-5.6-5.3-6.8-14.1-2.8-20.7l15.8-26.2c-1.9-3.9-3.5-7.9-4.9-12l-30.1-6.6
		C5.4,188.6,0,181.9,0,174l0-39.1c0-8.2,5.9-15.1,14-16.4l30.7-5c1.2-3.1,2.6-6.1,4-9.1L31.9,76.8c-4.1-6.6-2.9-15.3,2.7-20.7
		l28.2-27c5.7-5.5,15.2-6.1,21.5-1.3L109.9,47c1.2-0.5,2.4-0.9,3.6-1.4l5-31.7c1.3-8.1,8.3-14,16.4-14H174c7.8,0,14.6,5.5,16.3,13.1
		l7.1,32.5c1.1,0.4,2.2,0.8,3.3,1.2l27.5-18.7c6.3-4.3,15.3-3.6,20.8,1.7l28.4,26.8c6,5.7,7,14.7,2.3,21.5l-17.5,25.8
		c1.6,3.1,3,6.3,4.2,9.5l30.7,5c8.1,1.3,14,8.2,14,16.4l0,39.1c0,7.8-5.5,14.6-13.1,16.3l-30.1,6.6c-1.3,3.7-2.8,7.3-4.4,10.8
		l16.7,24.3c4.6,6.8,3.7,15.8-2.2,21.5l-28.2,27c-5.5,5.3-14.5,6.1-20.8,1.8l-24.6-16.4c-2.5,1.1-5.1,2.2-7.8,3.2l-6.3,28.9
		C188.7,305.6,181.8,311.1,174,311.1z M137.2,291.8H172l7.1-32.1c0.7-3.4,3.2-6.1,6.5-7.1c5.3-1.7,10.5-3.7,15.4-6.2
		c3.1-1.6,6.9-1.4,9.7,0.6l27.4,18.3l25.1-24.1L244.4,214c-2-3-2.3-6.8-0.6-10c3-5.6,5.5-11.7,7.4-18.1c1-3.4,3.7-5.9,7.2-6.6
		l33.4-7.3l0-34.7l-34-5.6c-3.5-0.6-6.4-3.1-7.6-6.4c-2-6-4.5-11.6-7.6-17c-1.8-3.2-1.7-7.1,0.4-10.2l19.6-28.8l-25.2-23.9
		l-27.8,18.9c-0.3,0.4-0.6,0.7-0.9,1c-2.9,2.6-7,3.2-10.5,1.5c-3.9-1.8-8-3.2-12.1-4.6c-3.9-1.2-6.6-4.8-6.7-8.9l-7.3-34h-34.7
		l-5.6,34.4l-0.4-0.1c-0.9,3.6-3.1,7.5-6.2,8.5c-4.3,1.4-8.5,2.8-12.5,4.8c-3.6,1.7-7.7,1.1-10.6-1.6c-0.3-0.2-0.5-0.5-0.8-0.8
		l-26.7-20l-25.1,24l17.8,29.2c0.2,0.3,0.4,0.6,0.6,0.9c2,3,2.2,6.9,0.4,10.1c-2.9,5.2-5.4,10.8-7.4,16.5c-1.1,3.4-4.1,5.8-7.6,6.4
		l-34,5.6l0,34.7l33.4,7.3c3.4,0.8,6.2,3.3,7.2,6.7c1.9,6.5,4.6,12.9,7.7,18.8c1.6,3,1.5,6.6-0.2,9.5l-17.5,29l25.2,23.9l25.6-19.4
		c2.9-2.2,6.9-2.6,10.1-1c4.7,2.3,9.5,4.2,14.6,5.8c3.5,1.1,6,4,6.6,7.6L137.2,291.8z M156.6,214.2c-31.4,0-56.9-25.6-56.9-56.9
		c0-31.4,25.6-57,56.9-57c31.4,0,57,25.6,57,57C213.5,188.6,188,214.2,156.6,214.2z M156.6,119.6c-20.8,0-37.7,16.9-37.7,37.7
		c0,20.8,16.9,37.7,37.7,37.7c20.8,0,37.7-16.9,37.7-37.7C194.2,136.5,177.3,119.6,156.6,119.6z"/>
</g>
</svg>
