<?xml version="1.0" encoding="utf-8"?>
<!-- Generator: Adobe Illustrator 25.2.3, SVG Export Plug-In . SVG Version: 6.00 Build 0)  -->
<svg version="1.1" id="Layer_1" xmlns="http://www.w3.org/2000/svg" xmlns:xlink="http://www.w3.org/1999/xlink" x="0px" y="0px"
	 viewBox="0 0 20 20" style="enable-background:new 0 0 20 20;" xml:space="preserve">
<style type="text/css">
	.st0{fill:#FFFFFF;}
</style>
<g>
	<path class="st0" d="M17.12,0H2.34C1.05,0,0,1.05,0,2.34v15.31C0,18.95,1.05,20,2.34,20h15.31c1.29,0,2.34-1.05,2.34-2.34V2.88
		L17.12,0z M4.69,1.56h8.98v4.61H4.69V1.56z M15.31,18.44H4.69v-6.17h10.62V18.44z M18.44,17.66c0,0.43-0.35,0.78-0.78,0.78h-0.78
		V10.7H3.12v7.73H2.34c-0.43,0-0.78-0.35-0.78-0.78V2.34c0-0.43,0.35-0.78,0.78-0.78h0.78v6.17h12.11V1.56h1.24l1.96,1.96V17.66z"/>
	<rect x="9.22" y="2.3" class="st0" width="1.56" height="3.09"/>
</g>
</svg>
