<?xml version="1.0" encoding="utf-8"?>
<!-- Generator: Adobe Illustrator 25.2.3, SVG Export Plug-In . SVG Version: 6.00 Build 0)  -->
<svg version="1.1" id="bold" xmlns="http://www.w3.org/2000/svg" xmlns:xlink="http://www.w3.org/1999/xlink" x="0px" y="0px"
	 viewBox="0 0 512 512" style="enable-background:new 0 0 512 512;" xml:space="preserve">
<style type="text/css">
	.st0{fill:#555555;}
</style>
<path class="st0" d="M21.4,160c11.8,0,21.3-9.5,21.3-21.3v-32c0-11.8,9.6-21.3,21.3-21.3h32c11.8,0,21.3-9.5,21.3-21.3
	S107.8,42.7,96,42.7H64c-35.3,0-64,28.7-64,64v32C0,150.5,9.6,160,21.4,160z"/>
<path class="st0" d="M448,42.7h-32c-11.8,0-21.3,9.5-21.3,21.3s9.6,21.3,21.3,21.3h32c11.8,0,21.3,9.6,21.3,21.3v32
	c0,11.8,9.6,21.3,21.3,21.3s21.3-9.5,21.3-21.3v-32C512,71.4,483.3,42.7,448,42.7z"/>
<path class="st0" d="M0,405.3c0,35.3,28.7,64,64,64h32c11.8,0,21.3-9.5,21.3-21.3c0-11.8-9.6-21.3-21.3-21.3H64
	c-11.8,0-21.3-9.6-21.3-21.3v-32c0-11.8-9.6-21.3-21.3-21.3S0,361.5,0,373.3C0,373.3,0,405.3,0,405.3z"/>
<path class="st0" d="M490.7,352c-11.8,0-21.3,9.5-21.3,21.3v32c0,11.8-9.6,21.3-21.3,21.3h-32c-11.8,0-21.3,9.5-21.3,21.3
	c0,11.8,9.6,21.3,21.3,21.3h32c35.3,0,64-28.7,64-64v-32C512,361.5,502.5,352,490.7,352z"/>
<path class="st0" d="M256,385.5c82.1,0,152.1-51.6,170.2-125.7c0.6-2.6,0.6-5.1,0-7.7c-18.1-74-88.1-125.7-170.2-125.7
	S103.9,178.1,85.8,252.2c-0.6,2.6-0.6,5.1,0,7.7C103.9,333.9,173.9,385.5,256,385.5z M256,192c35.2,0,64,28.8,64,64s-28.8,64-64,64
	s-64-28.8-64-64S220.8,192,256,192z"/>
</svg>
