<svg xmlns="http://www.w3.org/2000/svg" width="124.369" height="12" viewBox="0 0 124.369 12">
  <g id="category-tit" transform="translate(-373.682 -699.372)">
    <path id="Path_43" data-name="Path 43" d="M374.151,700.514h6.1v1.333h-2.21v1.272a2.785,2.785,0,0,0,.889,2.271c.531.58,1.172,1.21,1.79,1.765l-1,1.037c-.531-.494-1.074-1.037-1.53-1.507a5.671,5.671,0,0,1-.913-1.086h-.025a6.343,6.343,0,0,1-.939,1.136c-.457.482-.925.951-1.6,1.58l-1.026-1.049a25.069,25.069,0,0,0,1.828-1.791,2.994,2.994,0,0,0,.951-2.357v-1.272h-2.309Zm8.766,3.123h1.58V705h-1.58v6h-1.568V699.514h1.568Z" transform="translate(0 0.019)" fill="#fff"/>
    <path id="Path_44" data-name="Path 44" d="M386.719,700.612h5.124v1.333h-1.766V703.4a2.6,2.6,0,0,0,.7,1.9,19.668,19.668,0,0,0,1.618,1.765l-1.025.964c-.469-.494-.975-1.025-1.346-1.469a4.625,4.625,0,0,1-.642-.853h-.014a4.481,4.481,0,0,1-.654.9c-.407.494-.975,1.123-1.481,1.629l-1.025-1.024a20.864,20.864,0,0,0,1.618-1.778,2.761,2.761,0,0,0,.728-2.025v-1.469h-1.84Zm7.271,2.926h.987v-4.025h1.483v11.481h-1.483v-6.112h-.987v5.556h-1.481V699.747h1.481Z" transform="translate(1.675 0.019)" fill="#fff"/>
    <path id="Path_45" data-name="Path 45" d="M402.7,704.613v-2.086h1.568v2.086h5.3v1.308H399.048v-1.308Zm5.37-4.729v1.679a13.961,13.961,0,0,1-.271,2.482l-1.519-.173a10.733,10.733,0,0,0,.235-2.259V701.2h-6.1v-1.321Zm-7.469,9.259v-.371c0-1.407,1.7-2.147,3.7-2.147s3.7.74,3.7,2.147v.371c0,1.408-1.7,2.148-3.7,2.148S400.6,710.551,400.6,709.143Zm1.53-.272v.174c0,.605,1.075.975,2.173.975s2.172-.37,2.172-.975v-.174c0-.6-1.074-.975-2.172-.975S402.134,708.266,402.134,708.871Z" transform="translate(3.391 0.068)" fill="#fff"/>
    <path id="Path_46" data-name="Path 46" d="M418.861,703.9a10.706,10.706,0,0,0,.235-2.2v-.543h-6.049v-1.309h7.6v1.765a15.348,15.348,0,0,1-.235,2.284h1.778v1.309H411.676V703.9Zm1.864,2.186v4.876h-7.58v-4.876h1.543v1.136h4.494v-1.136Zm-1.543,3.6v-1.234h-4.494v1.234Z" transform="translate(5.079 0.064)" fill="#fff"/>
    <path id="Path_47" data-name="Path 47" d="M433.267,701.019h-5.988v.618h5.889v1.2h-5.889v.617h6.112v1.222h-3.05v.729h4.481v1.235H424.3V705.4h4.481v-.729h-3.037V699.8h7.519Zm-7.407,8.346v-.347c0-1.358,1.679-1.95,3.7-1.95s3.7.592,3.7,1.95v.347c0,1.357-1.679,1.95-3.7,1.95S425.859,710.722,425.859,709.365Zm1.53-.247v.147c0,.532,1.075.815,2.173.815s2.173-.283,2.173-.815v-.147c0-.519-1.075-.815-2.173-.815S427.39,708.6,427.39,709.118Z" transform="translate(6.767 0.057)" fill="#fff"/>
    <path id="Path_48" data-name="Path 48" d="M441.128,700.607h2.482v1.284h-6.569v-1.284h2.531v-1.235h1.555Zm-3.506,3.791v-.372c0-1.012.975-1.789,2.728-1.789s2.729.777,2.729,1.789v.372c0,1.011-.975,1.789-2.729,1.789S437.621,705.409,437.621,704.4Zm8.407,2.221v4.42h-7.135v-4.42h1.53v.976H444.5v-.976Zm-6.938-2.518v.222c0,.346.432.667,1.258.667s1.259-.321,1.259-.667V704.1c0-.346-.432-.667-1.259-.667S439.091,703.755,439.091,704.1Zm5.406,5.679v-.926h-4.073v.926Zm1.532-7.63h1.506v1.358h-1.506V706.1h-1.557v-6.567h1.557Z" transform="translate(8.47 0)" fill="#fff"/>
    <path id="Path_49" data-name="Path 49" d="M454.041,704.333v-1.061H455.6v1.061h4.481v1.2H449.56v-1.2Zm.778-2.332c-.086.234-.507.493-1.222.826-.778.358-1.618.692-2.643,1.086l-.568-1.234a27.34,27.34,0,0,0,2.68-1.1c.667-.321.962-.7.962-1.283v-.729h1.58v.729a1.353,1.353,0,0,0,.95,1.283,27.429,27.429,0,0,0,2.679,1.1l-.555,1.209c-1.024-.395-1.864-.728-2.641-1.086-.716-.333-1.136-.568-1.21-.8Zm3.79,4.247v2.975h-6.1v.692h6.433v1.173H451V708.1h6.1v-.679h-6.159v-1.172Z" transform="translate(10.143 0.026)" fill="#fff"/>
    <path id="Path_50" data-name="Path 50" d="M472.706,706.255v1.308h-4.469v3.383h-1.568v-3.383h-4.481v-1.308Zm-9.11-.851v-3.334h6.1v-.8h-6.135v-1.3h7.678v3.345h-6.1v.8H471.5V705.4Z" transform="translate(11.831 0.08)" fill="#fff"/>
    <path id="Path_51" data-name="Path 51" d="M478.3,704.3a2.775,2.775,0,0,1-.753.876c-.556.518-1.074.962-1.84,1.58l-.962-1.136A24.387,24.387,0,0,0,476.629,704a2.37,2.37,0,0,0,.828-1.926v-2.061h1.58v2a2.026,2.026,0,0,0,.8,1.864c.593.507,1.21.975,1.8,1.394l-.889,1.075c-.481-.346-1.025-.765-1.6-1.235-.433-.346-.766-.593-.84-.8Zm.321,5.234h5.926v1.333h-7.494v-3.839h1.568Zm4.2-5.173h-1.964v-1.308h1.964v-.778h-1.964v-1.308h1.964v-1.457h1.543v8.16h-1.543Z" transform="translate(13.509 0.019)" fill="#fff"/>
  </g>
</svg>
