<?xml version="1.0" encoding="utf-8"?>
<!-- Generator: Adobe Illustrator 25.2.3, SVG Export Plug-In . SVG Version: 6.00 Build 0)  -->
<svg version="1.1" id="Layer_1" xmlns="http://www.w3.org/2000/svg" xmlns:xlink="http://www.w3.org/1999/xlink" x="0px" y="0px"
	 viewBox="0 0 111.2 40" style="enable-background:new 0 0 111.2 40;" xml:space="preserve">
<style type="text/css">
	.st0{fill:#CCCCCC;}
</style>
<g id="logo" transform="translate(-364.228 -608.611)">
	<g id="Group_8" transform="translate(408.353 618.965)">
		<path id="Path_21" class="st0" d="M3.5,0.4V14H0V0.4H3.5z"/>
		<path id="Path_22" class="st0" d="M6.4,13.9V0.4h3.5l6.5,8.3V0.4h3.5V14h-3.5L9.9,5.6v8.3H6.4z"/>
		<path id="Path_23" class="st0" d="M31.3,3.4h-5v2.3h4.4v3h-4.4V14h-3.5V0.4h8.6v3H31.3z"/>
		<path id="Path_24" class="st0" d="M40.7,11.6h-5L34.9,14h-3.8l5.2-13.6h3.9L45.4,14h-3.8L40.7,11.6z M39.7,8.9l-1.6-4.5l-1.6,4.5
			H39.7z"/>
		<path id="Path_25" class="st0" d="M67.1,3.4h-5v2.3h4.4v3h-4.4V11h5v3h-8.6V0.4h8.6V3.4z"/>
		<path id="Path_26" class="st0" d="M56,4.9c-0.7-0.9-1.8-1.5-3-1.5c-0.5,0-1,0.1-1.5,0.3c-0.9,0.4-1.6,1.1-1.9,2
			c-0.2,0.5-0.3,1-0.3,1.5s0.1,1,0.3,1.5c0.4,0.9,1.1,1.6,1.9,2c0.5,0.2,0.9,0.3,1.4,0.3c1.2,0,2.3-0.5,3-1.4v4.2l-0.4,0.1
			c-0.5,0.2-1,0.3-1.5,0.4c-0.5,0.1-0.9,0.1-1.4,0.1c-1.9,0-3.6-0.7-5-2c-0.7-0.7-1.2-1.4-1.6-2.3c-0.8-1.8-0.8-3.9,0-5.8
			C47.4,1.7,50,0,52.8,0c0.5,0,1.1,0.1,1.6,0.2C55,0.3,55.5,0.5,56,0.7V4.9z"/>
	</g>
	<g id="Group_9" transform="translate(364.228 608.611)">
		<rect id="Rectangle_9" y="21.4" class="st0" width="7.4" height="7.4"/>
		<rect id="Rectangle_10" x="9.7" y="10.7" class="st0" width="7.4" height="25.4"/>
		<path id="Path_27" class="st0" d="M34.3,0H19.5v25.1h7.4V17h7.4v-6.3h-7.4V6.2h9.3V0H34.3z"/>
	</g>
	<g id="Group_10" transform="translate(408.353 638.205)">
		<path id="Path_28" class="st0" d="M2.6,3.9h3.8V0H9v10.1H6.4V5.9H2.6v4.2H0V0h2.6V3.9z"/>
		<path id="Path_29" class="st0" d="M13.8,0v5.5c0,0.3,0,0.6,0,0.9S13.9,7,14,7.2c0.1,0.3,0.3,0.5,0.5,0.6c0.3,0.2,0.7,0.3,1,0.2
			c0.4,0,0.7-0.1,1-0.2c0.2-0.1,0.4-0.4,0.5-0.6c0.1-0.3,0.2-0.5,0.2-0.8s0-0.6,0-0.9V0H20v5.9c0.1,1.2-0.3,2.5-1.1,3.5
			c-2,1.4-4.7,1.4-6.7,0c-0.8-1-1.2-2.2-1.1-3.5V0H13.8z"/>
		<path id="Path_30" class="st0" d="M22.1,0h4.1c0.8-0.1,1.5,0.2,2.1,0.7c0.5,0.5,0.8,1.2,0.7,1.9c0,0.4-0.1,0.9-0.3,1.3
			c-0.2,0.4-0.5,0.6-0.8,0.9c0.3,0.1,0.6,0.2,0.8,0.3c0.2,0.1,0.5,0.3,0.6,0.5c0.2,0.2,0.3,0.5,0.4,0.7c0.1,0.3,0.1,0.6,0.1,0.9
			c0,0.4-0.1,0.9-0.2,1.3c-0.2,0.4-0.4,0.7-0.7,0.9c-0.3,0.3-0.7,0.5-1.1,0.6c-0.5,0.1-1,0.2-1.5,0.2h-4.2C22.1,10.2,22.1,0,22.1,0z
			 M24.8,4h0.5c1,0,1.4-0.3,1.4-1s-0.3-1-1.4-1h-0.5V4z M24.8,8.1h0.6c0.5,0,1-0.1,1.4-0.3c0.5-0.3,0.6-0.9,0.2-1.4
			c-0.1-0.1-0.1-0.2-0.2-0.2c-0.4-0.2-0.9-0.3-1.4-0.3h-0.6V8.1z"/>
	</g>
</g>
</svg>
